<?xml version="1.0" ?><svg viewBox="0 0 32 32" xmlns="http://www.w3.org/2000/svg"><defs><style>.cls-1{fill:#d8e1ef;}.cls-2{fill:#0593ff;}.cls-3{fill:#0e6ae0;}</style></defs><title/><g id="Focus"><path class="cls-1" d="M29.93,15.54C28,10.35,22.49,7,16,7S4,10.35,2.07,15.54A.92.92,0,0,0,2,15.9V16a.92.92,0,0,0,.07.36c2,5.22,7.48,8.59,14,8.59S28,21.62,29.93,16.46A.92.92,0,0,0,30,16.1v-.2A.92.92,0,0,0,29.93,15.54Z"/><circle class="cls-2" cx="16" cy="16" r="6"/><path class="cls-3" d="M14,17a1,1,0,0,1-1-1,3,3,0,0,1,3-3,1,1,0,0,1,0,2,1,1,0,0,0-1,1A1,1,0,0,1,14,17Z"/><path class="cls-2" d="M3,8A1,1,0,0,1,2,7V3A1,1,0,0,1,3,2H7A1,1,0,0,1,7,4H4V7A1,1,0,0,1,3,8Z"/><path class="cls-2" d="M29,8a1,1,0,0,1-1-1V4H25a1,1,0,0,1,0-2h4a1,1,0,0,1,1,1V7A1,1,0,0,1,29,8Z"/><path class="cls-2" d="M7,30H3a1,1,0,0,1-1-1V25a1,1,0,0,1,2,0v3H7a1,1,0,0,1,0,2Z"/><path class="cls-2" d="M29,30H25a1,1,0,0,1,0-2h3V25a1,1,0,0,1,2,0v4A1,1,0,0,1,29,30Z"/></g></svg>